<svg width="18" height="18" viewBox="0 0 18 18" fill="none" xmlns="http://www.w3.org/2000/svg">
<path d="M16.4826 11.3906C16.538 11.4868 16.5739 11.593 16.5883 11.7031C16.6027 11.8132 16.5952 11.925 16.5664 12.0322C16.5375 12.1394 16.4878 12.2399 16.4201 12.3279C16.3524 12.4159 16.2681 12.4897 16.1719 12.5451C16.0756 12.6005 15.9695 12.6364 15.8594 12.6508C15.7493 12.6652 15.6374 12.6577 15.5302 12.6289C15.423 12.6 15.3225 12.5503 15.2345 12.4826C15.1465 12.4149 15.0727 12.3306 15.0173 12.2344L13.8319 10.1601C13.1704 10.5763 12.4572 10.9039 11.7105 11.1347L12.0825 13.3594C12.1191 13.58 12.0665 13.8062 11.9364 13.9882C11.8062 14.1701 11.6092 14.293 11.3885 14.3297C11.3421 14.3379 11.295 14.3419 11.2479 14.3416C11.0486 14.3414 10.8559 14.2707 10.7038 14.142C10.5516 14.0133 10.45 13.835 10.4168 13.6385L10.0547 11.4729C9.35228 11.5507 8.64346 11.5507 7.94107 11.4729L7.58248 13.6406C7.54923 13.8373 7.44736 14.0159 7.29496 14.1446C7.14255 14.2733 6.94947 14.3439 6.74998 14.3437C6.70284 14.344 6.65577 14.34 6.60935 14.3318C6.50007 14.3134 6.39547 14.2736 6.30155 14.2148C6.20763 14.1559 6.12622 14.0792 6.06197 13.9889C5.99772 13.8986 5.95189 13.7965 5.9271 13.6885C5.90231 13.5805 5.89904 13.4686 5.91748 13.3594L6.28943 11.129C5.54278 10.8983 4.8296 10.5706 4.1681 10.1545L2.98263 12.2344C2.92723 12.3306 2.85342 12.4149 2.76542 12.4826C2.67742 12.5503 2.57694 12.6 2.46973 12.6289C2.36253 12.6577 2.25068 12.6652 2.14059 12.6508C2.0305 12.6364 1.92432 12.6005 1.8281 12.5451C1.73189 12.4897 1.64753 12.4159 1.57984 12.3279C1.51215 12.2399 1.46246 12.1394 1.4336 12.0322C1.40474 11.925 1.39728 11.8132 1.41165 11.7031C1.42601 11.593 1.46192 11.4868 1.51732 11.3906L2.81248 9.13006C2.37356 8.73358 1.9666 8.3031 1.59537 7.84263C1.46434 7.66787 1.40618 7.4491 1.43315 7.23234C1.46011 7.01558 1.57008 6.81772 1.73993 6.68038C1.90978 6.54304 2.12628 6.47692 2.34388 6.49593C2.56148 6.51495 2.76323 6.61761 2.9067 6.78232C4.03451 8.17873 6.00748 9.84373 8.99998 9.84373C11.9925 9.84373 13.9654 8.17873 15.0933 6.78232C15.2344 6.6099 15.438 6.50031 15.6597 6.47747C15.8813 6.45463 16.103 6.52039 16.2763 6.66039C16.4497 6.8004 16.5606 7.00329 16.5849 7.22478C16.6092 7.44627 16.5449 7.66838 16.406 7.84263C16.0343 8.30316 15.6269 8.73363 15.1875 9.13006L16.4826 11.3906Z" fill="currentColor"/>
</svg>
